<svg width="190" height="119" viewBox="0 0 190 119" fill="none" xmlns="http://www.w3.org/2000/svg">
<g filter="url(#filter0_d_53_736)">
<rect x="8" y="6" width="173.111" height="102.931" rx="9.35733" fill="white"/>
<path d="M92.9249 35.7128C93.0324 35.7661 93.1268 35.8425 93.2012 35.9366C93.2757 36.0308 93.3284 36.1402 93.3555 36.2571C93.3847 36.3855 94.1875 39.8208 94.1875 42.125C94.1875 43.6688 93.4692 45.0451 92.3512 45.9373C91.945 46.2623 91.75 46.6165 91.75 46.9123V47.702C91.75 47.7399 91.7522 47.7757 91.7565 47.8093C91.8118 48.2123 92.0116 49.7089 92.1985 51.2608C92.3821 52.7834 92.5625 54.4441 92.5625 55.125C92.5625 55.987 92.2201 56.8136 91.6106 57.4231C91.0011 58.0326 90.1745 58.375 89.3125 58.375C88.4505 58.375 87.6239 58.0326 87.0144 57.4231C86.4049 56.8136 86.0625 55.987 86.0625 55.125C86.0625 54.4425 86.2429 52.785 86.4265 51.2608C86.6134 49.7089 86.8133 48.2123 86.8685 47.8093L86.875 47.702V46.9123C86.875 46.6165 86.68 46.2623 86.2738 45.9373C85.7009 45.4806 85.2383 44.9007 84.9204 44.2407C84.6025 43.5807 84.4375 42.8576 84.4375 42.125C84.4375 39.8289 85.2338 36.4115 85.2695 36.2588C85.3117 36.0781 85.4139 35.9171 85.5594 35.802C85.7049 35.6869 85.8851 35.6245 86.0706 35.625C86.5256 35.625 86.8945 35.9939 86.8945 36.4489V41.3206C86.8881 41.4304 86.9042 41.5402 86.942 41.6435C86.9797 41.7467 87.0382 41.8412 87.1138 41.9209C87.1894 42.0007 87.2806 42.0641 87.3817 42.1073C87.4828 42.1504 87.5917 42.1724 87.7016 42.1719C87.8115 42.1713 87.9201 42.1482 88.0208 42.1041C88.1214 42.0599 88.212 41.9955 88.2868 41.915C88.3616 41.8345 88.4191 41.7395 88.4558 41.6358C88.4925 41.5322 88.5075 41.4222 88.5 41.3125V36.4375C88.5 36.222 88.5856 36.0154 88.738 35.863C88.8903 35.7106 89.097 35.625 89.3125 35.625C89.528 35.625 89.7347 35.7106 89.887 35.863C90.0394 36.0154 90.125 36.222 90.125 36.4375V41.3548C90.1295 41.5681 90.2186 41.7709 90.3727 41.9185C90.5267 42.0662 90.7331 42.1466 90.9464 42.1421C91.1598 42.1375 91.3626 42.0485 91.5102 41.8944C91.6579 41.7404 91.7383 41.534 91.7337 41.3206V36.4456C91.7337 35.9923 92.101 35.625 92.556 35.625C92.5918 35.625 92.751 35.625 92.9249 35.7128ZM96.625 42.9375C96.625 40.9981 97.3954 39.1381 98.7668 37.7668C100.138 36.3954 101.998 35.625 103.938 35.625C104.153 35.625 104.36 35.7106 104.512 35.863C104.664 36.0154 104.75 36.222 104.75 36.4375V46.1436L104.781 46.4313C104.91 47.644 105.034 48.8574 105.153 50.0713C105.353 52.1123 105.562 54.4003 105.562 55.125C105.562 55.987 105.22 56.8136 104.611 57.4231C104.001 58.0326 103.174 58.375 102.312 58.375C101.451 58.375 100.624 58.0326 100.014 57.4231C99.4049 56.8136 99.0625 55.987 99.0625 55.125C99.0625 54.4003 99.2721 52.1123 99.472 50.0713C99.5744 49.0361 99.6768 48.0449 99.7531 47.3104L99.7856 47H98.25C97.819 47 97.4057 46.8288 97.101 46.5241C96.7962 46.2193 96.625 45.806 96.625 45.375V42.9375Z" fill="#FF754A"/>
<path d="M83.776 74.27V75.572H79.646V78.442H82.866V79.744H79.646V84H78.05V74.27H83.776ZM88.6011 84.126C87.8731 84.126 87.2151 83.9627 86.6271 83.636C86.0391 83.3 85.5771 82.8333 85.2411 82.236C84.9051 81.6293 84.7371 80.9293 84.7371 80.136C84.7371 79.352 84.9097 78.6567 85.2551 78.05C85.6004 77.4433 86.0717 76.9767 86.6691 76.65C87.2664 76.3233 87.9337 76.16 88.6711 76.16C89.4084 76.16 90.0757 76.3233 90.6731 76.65C91.2704 76.9767 91.7417 77.4433 92.0871 78.05C92.4324 78.6567 92.6051 79.352 92.6051 80.136C92.6051 80.92 92.4277 81.6153 92.0731 82.222C91.7184 82.8287 91.2331 83.3 90.6171 83.636C90.0104 83.9627 89.3384 84.126 88.6011 84.126ZM88.6011 82.74C89.0117 82.74 89.3944 82.642 89.7491 82.446C90.1131 82.25 90.4071 81.956 90.6311 81.564C90.8551 81.172 90.9671 80.696 90.9671 80.136C90.9671 79.576 90.8597 79.1047 90.6451 78.722C90.4304 78.33 90.1457 78.036 89.7911 77.84C89.4364 77.644 89.0537 77.546 88.6431 77.546C88.2324 77.546 87.8497 77.644 87.4951 77.84C87.1497 78.036 86.8744 78.33 86.6691 78.722C86.4637 79.1047 86.3611 79.576 86.3611 80.136C86.3611 80.9667 86.5711 81.6107 86.9911 82.068C87.4204 82.516 87.9571 82.74 88.6011 82.74ZM97.5288 84.126C96.8008 84.126 96.1428 83.9627 95.5548 83.636C94.9668 83.3 94.5048 82.8333 94.1688 82.236C93.8328 81.6293 93.6648 80.9293 93.6648 80.136C93.6648 79.352 93.8375 78.6567 94.1828 78.05C94.5281 77.4433 94.9995 76.9767 95.5968 76.65C96.1941 76.3233 96.8615 76.16 97.5988 76.16C98.3361 76.16 99.0035 76.3233 99.6008 76.65C100.198 76.9767 100.669 77.4433 101.015 78.05C101.36 78.6567 101.533 79.352 101.533 80.136C101.533 80.92 101.355 81.6153 101.001 82.222C100.646 82.8287 100.161 83.3 99.5448 83.636C98.9381 83.9627 98.2661 84.126 97.5288 84.126ZM97.5288 82.74C97.9395 82.74 98.3221 82.642 98.6768 82.446C99.0408 82.25 99.3348 81.956 99.5588 81.564C99.7828 81.172 99.8948 80.696 99.8948 80.136C99.8948 79.576 99.7875 79.1047 99.5728 78.722C99.3581 78.33 99.0735 78.036 98.7188 77.84C98.3641 77.644 97.9815 77.546 97.5708 77.546C97.1601 77.546 96.7775 77.644 96.4228 77.84C96.0775 78.036 95.8021 78.33 95.5968 78.722C95.3915 79.1047 95.2888 79.576 95.2888 80.136C95.2888 80.9667 95.4988 81.6107 95.9188 82.068C96.3481 82.516 96.8848 82.74 97.5288 82.74ZM102.579 80.108C102.579 79.3333 102.737 78.6473 103.055 78.05C103.381 77.4527 103.82 76.9907 104.371 76.664C104.931 76.328 105.551 76.16 106.233 76.16C106.737 76.16 107.231 76.272 107.717 76.496C108.211 76.7107 108.603 77 108.893 77.364V73.64H110.503V84H108.893V82.838C108.631 83.2113 108.267 83.5193 107.801 83.762C107.343 84.0047 106.816 84.126 106.219 84.126C105.547 84.126 104.931 83.958 104.371 83.622C103.82 83.2767 103.381 82.8007 103.055 82.194C102.737 81.578 102.579 80.8827 102.579 80.108ZM108.893 80.136C108.893 79.604 108.781 79.142 108.557 78.75C108.342 78.358 108.057 78.0593 107.703 77.854C107.348 77.6487 106.965 77.546 106.555 77.546C106.144 77.546 105.761 77.6487 105.407 77.854C105.052 78.05 104.763 78.344 104.539 78.736C104.324 79.1187 104.217 79.576 104.217 80.108C104.217 80.64 104.324 81.1067 104.539 81.508C104.763 81.9093 105.052 82.2173 105.407 82.432C105.771 82.6373 106.153 82.74 106.555 82.74C106.965 82.74 107.348 82.6373 107.703 82.432C108.057 82.2267 108.342 81.928 108.557 81.536C108.781 81.1347 108.893 80.668 108.893 80.136Z" fill="#2F3030"/>
</g>
<defs>
<filter id="filter0_d_53_736" x="0" y="0" width="189.111" height="118.931" filterUnits="userSpaceOnUse" color-interpolation-filters="sRGB">
<feFlood flood-opacity="0" result="BackgroundImageFix"/>
<feColorMatrix in="SourceAlpha" type="matrix" values="0 0 0 0 0 0 0 0 0 0 0 0 0 0 0 0 0 0 127 0" result="hardAlpha"/>
<feOffset dy="2"/>
<feGaussianBlur stdDeviation="4"/>
<feComposite in2="hardAlpha" operator="out"/>
<feColorMatrix type="matrix" values="0 0 0 0 0 0 0 0 0 0 0 0 0 0 0 0 0 0 0.1 0"/>
<feBlend mode="normal" in2="BackgroundImageFix" result="effect1_dropShadow_53_736"/>
<feBlend mode="normal" in="SourceGraphic" in2="effect1_dropShadow_53_736" result="shape"/>
</filter>
</defs>
</svg>
