<svg width="190" height="120" viewBox="0 0 190 120" fill="none" xmlns="http://www.w3.org/2000/svg">
<g filter="url(#filter0_d_53_726)">
<rect x="8.8894" y="6.7095" width="173.111" height="102.931" rx="9.35733" fill="white"/>
<path fill-rule="evenodd" clip-rule="evenodd" d="M97.1667 42.5833H92.8333V45.8333C92.8333 46.1207 92.7192 46.3962 92.516 46.5994C92.3129 46.8025 92.0373 46.9167 91.75 46.9167C91.4627 46.9167 91.1871 46.8025 90.984 46.5994C90.7808 46.3962 90.6667 46.1207 90.6667 45.8333V42.5833H88.5C88.2271 42.5833 87.9643 42.6863 87.7641 42.8717C87.5638 43.0571 87.4409 43.3112 87.4199 43.5833L86.4265 56.5009C86.4037 56.7985 86.4426 57.0976 86.5408 57.3795C86.639 57.6614 86.7944 57.9199 86.9972 58.1389C87.2 58.3579 87.4459 58.5326 87.7194 58.6521C87.9929 58.7716 88.2882 58.8333 88.5867 58.8333H101.413C101.712 58.8333 102.007 58.7716 102.281 58.6521C102.554 58.5326 102.8 58.3579 103.003 58.1389C103.206 57.9199 103.361 57.6614 103.459 57.3795C103.557 57.0976 103.596 56.7985 103.574 56.5009L102.58 43.5833C102.559 43.3112 102.436 43.0571 102.236 42.8717C102.036 42.6863 101.773 42.5833 101.5 42.5833H99.3333V45.8333C99.3333 46.1207 99.2192 46.3962 99.016 46.5994C98.8129 46.8025 98.5373 46.9167 98.25 46.9167C97.9627 46.9167 97.6871 46.8025 97.484 46.5994C97.2808 46.3962 97.1667 46.1207 97.1667 45.8333V42.5833ZM95 39.3333C94.4254 39.3333 93.8743 39.5616 93.468 39.9679C93.0616 40.3743 92.8333 40.9254 92.8333 41.5V42.5833H90.6667V41.5C90.6667 40.3507 91.1232 39.2485 91.9359 38.4359C92.7485 37.6232 93.8507 37.1667 95 37.1667C96.1493 37.1667 97.2515 37.6232 98.0641 38.4359C98.8768 39.2485 99.3333 40.3507 99.3333 41.5V42.5833H97.1667V41.5C97.1667 40.9254 96.9384 40.3743 96.5321 39.9679C96.1258 39.5616 95.5747 39.3333 95 39.3333Z" fill="#509CFF"/>
</g>
<defs>
<filter id="filter0_d_53_726" x="0.889404" y="0.709503" width="189.111" height="118.931" filterUnits="userSpaceOnUse" color-interpolation-filters="sRGB">
<feFlood flood-opacity="0" result="BackgroundImageFix"/>
<feColorMatrix in="SourceAlpha" type="matrix" values="0 0 0 0 0 0 0 0 0 0 0 0 0 0 0 0 0 0 127 0" result="hardAlpha"/>
<feOffset dy="2"/>
<feGaussianBlur stdDeviation="4"/>
<feComposite in2="hardAlpha" operator="out"/>
<feColorMatrix type="matrix" values="0 0 0 0 0 0 0 0 0 0 0 0 0 0 0 0 0 0 0.1 0"/>
<feBlend mode="normal" in2="BackgroundImageFix" result="effect1_dropShadow_53_726"/>
<feBlend mode="normal" in="SourceGraphic" in2="effect1_dropShadow_53_726" result="shape"/>
</filter>
</defs>
</svg>
