<svg width="190" height="119" viewBox="0 0 190 119" fill="none" xmlns="http://www.w3.org/2000/svg">
<g filter="url(#filter0_d_53_740)">
<rect x="8.8894" y="6" width="173.111" height="102.931" rx="9.35733" fill="white"/>
<path d="M87.0556 36.4445C84.2615 36.4445 82 38.7059 82 41.5V51.6111C82 54.4052 84.2615 56.6667 87.0556 56.6667C89.8497 56.6667 92.1111 54.4052 92.1111 51.6111V41.5C92.1111 38.7059 89.8497 36.4445 87.0556 36.4445ZM89.2222 46.5556H84.8889V41.5C84.8889 40.3038 85.8594 39.3333 87.0556 39.3333C88.2517 39.3333 89.2222 40.3038 89.2222 41.5V46.5556ZM95.5281 45.2149C95.3701 45.057 95.1038 45.075 94.9729 45.2511C92.9281 48.0722 93.1493 52.0264 95.6906 54.5677C98.2319 57.109 102.186 57.3302 105.007 55.2854C105.188 55.1545 105.201 54.8882 105.043 54.7302L95.5281 45.2149ZM105.901 44.3573C103.36 41.816 99.4056 41.5948 96.5844 43.6396C96.4038 43.7705 96.3903 44.0368 96.5483 44.1948L106.064 53.7101C106.222 53.8681 106.488 53.85 106.619 53.674C108.664 50.8483 108.447 46.8986 105.901 44.3573Z" fill="#10B981"/>
<path d="M73.298 73.27V83H71.702V76.336L68.734 83H67.628L64.646 76.336V83H63.05V73.27H64.772L68.188 80.9L71.59 73.27H73.298ZM82.4657 78.954C82.4657 79.2433 82.447 79.5047 82.4097 79.738H76.5157C76.5624 80.354 76.791 80.8487 77.2017 81.222C77.6124 81.5953 78.1164 81.782 78.7137 81.782C79.5724 81.782 80.179 81.4227 80.5337 80.704H82.2557C82.0224 81.4133 81.5977 81.9967 80.9817 82.454C80.375 82.902 79.619 83.126 78.7137 83.126C77.9764 83.126 77.3137 82.9627 76.7257 82.636C76.147 82.3 75.6897 81.8333 75.3537 81.236C75.027 80.6293 74.8637 79.9293 74.8637 79.136C74.8637 78.3427 75.0224 77.6473 75.3397 77.05C75.6664 76.4433 76.119 75.9767 76.6977 75.65C77.2857 75.3233 77.9577 75.16 78.7137 75.16C79.4417 75.16 80.0904 75.3187 80.6597 75.636C81.229 75.9533 81.6724 76.4013 81.9897 76.98C82.307 77.5493 82.4657 78.2073 82.4657 78.954ZM80.7997 78.45C80.7904 77.862 80.5804 77.3907 80.1697 77.036C79.759 76.6813 79.2504 76.504 78.6437 76.504C78.093 76.504 77.6217 76.6813 77.2297 77.036C76.8377 77.3813 76.6044 77.8527 76.5297 78.45H80.7997ZM83.5043 79.108C83.5043 78.3333 83.663 77.6473 83.9803 77.05C84.307 76.4527 84.7457 75.9907 85.2963 75.664C85.8563 75.328 86.477 75.16 87.1583 75.16C87.6623 75.16 88.157 75.272 88.6423 75.496C89.137 75.7107 89.529 76 89.8183 76.364V72.64H91.4283V83H89.8183V81.838C89.557 82.2113 89.193 82.5193 88.7263 82.762C88.269 83.0047 87.7417 83.126 87.1443 83.126C86.4723 83.126 85.8563 82.958 85.2963 82.622C84.7457 82.2767 84.307 81.8007 83.9803 81.194C83.663 80.578 83.5043 79.8827 83.5043 79.108ZM89.8183 79.136C89.8183 78.604 89.7063 78.142 89.4823 77.75C89.2677 77.358 88.983 77.0593 88.6283 76.854C88.2737 76.6487 87.891 76.546 87.4803 76.546C87.0697 76.546 86.687 76.6487 86.3323 76.854C85.9777 77.05 85.6883 77.344 85.4643 77.736C85.2497 78.1187 85.1423 78.576 85.1423 79.108C85.1423 79.64 85.2497 80.1067 85.4643 80.508C85.6883 80.9093 85.9777 81.2173 86.3323 81.432C86.6963 81.6373 87.079 81.74 87.4803 81.74C87.891 81.74 88.2737 81.6373 88.6283 81.432C88.983 81.2267 89.2677 80.928 89.4823 80.536C89.7063 80.1347 89.8183 79.668 89.8183 79.136ZM94.3366 74.264C94.0473 74.264 93.8046 74.166 93.6086 73.97C93.4126 73.774 93.3146 73.5313 93.3146 73.242C93.3146 72.9527 93.4126 72.71 93.6086 72.514C93.8046 72.318 94.0473 72.22 94.3366 72.22C94.6166 72.22 94.8546 72.318 95.0506 72.514C95.2466 72.71 95.3446 72.9527 95.3446 73.242C95.3446 73.5313 95.2466 73.774 95.0506 73.97C94.8546 74.166 94.6166 74.264 94.3366 74.264ZM95.1206 75.286V83H93.5246V75.286H95.1206ZM96.684 79.136C96.684 78.3427 96.8427 77.6473 97.16 77.05C97.4867 76.4433 97.9347 75.9767 98.504 75.65C99.0733 75.3233 99.7267 75.16 100.464 75.16C101.397 75.16 102.167 75.384 102.774 75.832C103.39 76.2707 103.805 76.9007 104.02 77.722H102.298C102.158 77.3393 101.934 77.0407 101.626 76.826C101.318 76.6113 100.931 76.504 100.464 76.504C99.8107 76.504 99.288 76.7373 98.896 77.204C98.5133 77.6613 98.322 78.3053 98.322 79.136C98.322 79.9667 98.5133 80.6153 98.896 81.082C99.288 81.5487 99.8107 81.782 100.464 81.782C101.388 81.782 101.999 81.376 102.298 80.564H104.02C103.796 81.348 103.376 81.9733 102.76 82.44C102.144 82.8973 101.379 83.126 100.464 83.126C99.7267 83.126 99.0733 82.9627 98.504 82.636C97.9347 82.3 97.4867 81.8333 97.16 81.236C96.8427 80.6293 96.684 79.9293 96.684 79.136ZM106.423 74.264C106.133 74.264 105.891 74.166 105.695 73.97C105.499 73.774 105.401 73.5313 105.401 73.242C105.401 72.9527 105.499 72.71 105.695 72.514C105.891 72.318 106.133 72.22 106.423 72.22C106.703 72.22 106.941 72.318 107.137 72.514C107.333 72.71 107.431 72.9527 107.431 73.242C107.431 73.5313 107.333 73.774 107.137 73.97C106.941 74.166 106.703 74.264 106.423 74.264ZM107.207 75.286V83H105.611V75.286H107.207ZM113.194 75.16C113.801 75.16 114.342 75.286 114.818 75.538C115.303 75.79 115.681 76.1633 115.952 76.658C116.223 77.1527 116.358 77.75 116.358 78.45V83H114.776V78.688C114.776 77.9973 114.603 77.47 114.258 77.106C113.913 76.7327 113.441 76.546 112.844 76.546C112.247 76.546 111.771 76.7327 111.416 77.106C111.071 77.47 110.898 77.9973 110.898 78.688V83H109.302V75.286H110.898V76.168C111.159 75.8507 111.491 75.6033 111.892 75.426C112.303 75.2487 112.737 75.16 113.194 75.16ZM125.464 78.954C125.464 79.2433 125.445 79.5047 125.408 79.738H119.514C119.56 80.354 119.789 80.8487 120.2 81.222C120.61 81.5953 121.114 81.782 121.712 81.782C122.57 81.782 123.177 81.4227 123.532 80.704H125.254C125.02 81.4133 124.596 81.9967 123.98 82.454C123.373 82.902 122.617 83.126 121.712 83.126C120.974 83.126 120.312 82.9627 119.724 82.636C119.145 82.3 118.688 81.8333 118.352 81.236C118.025 80.6293 117.862 79.9293 117.862 79.136C117.862 78.3427 118.02 77.6473 118.338 77.05C118.664 76.4433 119.117 75.9767 119.696 75.65C120.284 75.3233 120.956 75.16 121.712 75.16C122.44 75.16 123.088 75.3187 123.658 75.636C124.227 75.9533 124.67 76.4013 124.988 76.98C125.305 77.5493 125.464 78.2073 125.464 78.954ZM123.798 78.45C123.788 77.862 123.578 77.3907 123.168 77.036C122.757 76.6813 122.248 76.504 121.642 76.504C121.091 76.504 120.62 76.6813 120.228 77.036C119.836 77.3813 119.602 77.8527 119.528 78.45H123.798Z" fill="#2F3030"/>
</g>
<defs>
<filter id="filter0_d_53_740" x="0.889404" y="0" width="189.111" height="118.931" filterUnits="userSpaceOnUse" color-interpolation-filters="sRGB">
<feFlood flood-opacity="0" result="BackgroundImageFix"/>
<feColorMatrix in="SourceAlpha" type="matrix" values="0 0 0 0 0 0 0 0 0 0 0 0 0 0 0 0 0 0 127 0" result="hardAlpha"/>
<feOffset dy="2"/>
<feGaussianBlur stdDeviation="4"/>
<feComposite in2="hardAlpha" operator="out"/>
<feColorMatrix type="matrix" values="0 0 0 0 0 0 0 0 0 0 0 0 0 0 0 0 0 0 0.1 0"/>
<feBlend mode="normal" in2="BackgroundImageFix" result="effect1_dropShadow_53_740"/>
<feBlend mode="normal" in="SourceGraphic" in2="effect1_dropShadow_53_740" result="shape"/>
</filter>
</defs>
</svg>
