<svg width="190" height="120" viewBox="0 0 190 120" fill="none" xmlns="http://www.w3.org/2000/svg">
<g filter="url(#filter0_d_53_744)">
<rect x="8" y="6.7095" width="173.111" height="102.931" rx="9.35733" fill="white"/>
<path d="M99.8035 38.25C100.148 38.2501 100.487 38.3323 100.794 38.4898C101.1 38.6473 101.365 38.8756 101.565 39.1557L101.661 39.3019L104.287 43.6786C104.546 44.1102 104.701 44.596 104.74 45.0978L104.75 45.3502V55.5833C104.75 56.13 104.544 56.6564 104.172 57.0573C103.8 57.4581 103.291 57.7036 102.746 57.7446L102.583 57.75H87.4167C86.87 57.7502 86.3436 57.5437 85.9427 57.172C85.5419 56.8004 85.2964 56.2909 85.2554 55.7458L85.25 55.5833V45.3502C85.25 44.8463 85.3672 44.3493 85.5923 43.8985L85.7137 43.6775L88.3375 39.3019C88.5147 39.0063 88.7599 38.7573 89.0527 38.5755C89.3455 38.3936 89.6775 38.2843 90.021 38.2565L90.1965 38.25H99.8035ZM99.8035 40.4167H96.0833V44.75H102.403L99.8035 40.4167ZM93.9167 40.4167H90.1965L87.5965 44.75H93.9167V40.4167Z" fill="#A26400"/>
<path d="M79.854 79.168C79.854 79.6627 79.7373 80.1293 79.504 80.568C79.2707 81.0067 78.8973 81.366 78.384 81.646C77.8707 81.9167 77.2127 82.052 76.41 82.052H74.646V86H73.05V76.27H76.41C77.1567 76.27 77.7867 76.4007 78.3 76.662C78.8227 76.914 79.21 77.2593 79.462 77.698C79.7233 78.1367 79.854 78.6267 79.854 79.168ZM76.41 80.75C77.0167 80.75 77.4693 80.6147 77.768 80.344C78.0667 80.064 78.216 79.672 78.216 79.168C78.216 78.104 77.614 77.572 76.41 77.572H74.646V80.75H76.41ZM80.8442 82.108C80.8442 81.3333 81.0028 80.6473 81.3202 80.05C81.6468 79.4527 82.0855 78.9907 82.6362 78.664C83.1962 78.328 83.8122 78.16 84.4842 78.16C85.0908 78.16 85.6182 78.2813 86.0662 78.524C86.5235 78.7573 86.8875 79.0513 87.1582 79.406V78.286H88.7682V86H87.1582V84.852C86.8875 85.216 86.5188 85.5193 86.0522 85.762C85.5855 86.0047 85.0535 86.126 84.4562 86.126C83.7935 86.126 83.1868 85.958 82.6362 85.622C82.0855 85.2767 81.6468 84.8007 81.3202 84.194C81.0028 83.578 80.8442 82.8827 80.8442 82.108ZM87.1582 82.136C87.1582 81.604 87.0462 81.142 86.8222 80.75C86.6075 80.358 86.3228 80.0593 85.9682 79.854C85.6135 79.6487 85.2308 79.546 84.8202 79.546C84.4095 79.546 84.0268 79.6487 83.6722 79.854C83.3175 80.05 83.0282 80.344 82.8042 80.736C82.5895 81.1187 82.4822 81.576 82.4822 82.108C82.4822 82.64 82.5895 83.1067 82.8042 83.508C83.0282 83.9093 83.3175 84.2173 83.6722 84.432C84.0362 84.6373 84.4188 84.74 84.8202 84.74C85.2308 84.74 85.6135 84.6373 85.9682 84.432C86.3228 84.2267 86.6075 83.928 86.8222 83.536C87.0462 83.1347 87.1582 82.668 87.1582 82.136ZM92.4605 79.406C92.6938 79.014 93.0018 78.7107 93.3845 78.496C93.7765 78.272 94.2385 78.16 94.7705 78.16V79.812H94.3645C93.7391 79.812 93.2631 79.9707 92.9365 80.288C92.6191 80.6053 92.4605 81.156 92.4605 81.94V86H90.8645V78.286H92.4605V79.406ZM95.7055 82.136C95.7055 81.3427 95.8642 80.6473 96.1815 80.05C96.5082 79.4433 96.9562 78.9767 97.5255 78.65C98.0948 78.3233 98.7482 78.16 99.4855 78.16C100.419 78.16 101.189 78.384 101.796 78.832C102.412 79.2707 102.827 79.9007 103.042 80.722H101.32C101.18 80.3393 100.956 80.0407 100.648 79.826C100.34 79.6113 99.9522 79.504 99.4855 79.504C98.8322 79.504 98.3095 79.7373 97.9175 80.204C97.5348 80.6613 97.3435 81.3053 97.3435 82.136C97.3435 82.9667 97.5348 83.6153 97.9175 84.082C98.3095 84.5487 98.8322 84.782 99.4855 84.782C100.41 84.782 101.021 84.376 101.32 83.564H103.042C102.818 84.348 102.398 84.9733 101.782 85.44C101.166 85.8973 100.4 86.126 99.4855 86.126C98.7482 86.126 98.0948 85.9627 97.5255 85.636C96.9562 85.3 96.5082 84.8333 96.1815 84.236C95.8642 83.6293 95.7055 82.9293 95.7055 82.136ZM111.702 81.954C111.702 82.2433 111.683 82.5047 111.646 82.738H105.752C105.799 83.354 106.027 83.8487 106.438 84.222C106.849 84.5953 107.353 84.782 107.95 84.782C108.809 84.782 109.415 84.4227 109.77 83.704H111.492C111.259 84.4133 110.834 84.9967 110.218 85.454C109.611 85.902 108.855 86.126 107.95 86.126C107.213 86.126 106.55 85.9627 105.962 85.636C105.383 85.3 104.926 84.8333 104.59 84.236C104.263 83.6293 104.1 82.9293 104.1 82.136C104.1 81.3427 104.259 80.6473 104.576 80.05C104.903 79.4433 105.355 78.9767 105.934 78.65C106.522 78.3233 107.194 78.16 107.95 78.16C108.678 78.16 109.327 78.3187 109.896 78.636C110.465 78.9533 110.909 79.4013 111.226 79.98C111.543 80.5493 111.702 81.2073 111.702 81.954ZM110.036 81.45C110.027 80.862 109.817 80.3907 109.406 80.036C108.995 79.6813 108.487 79.504 107.88 79.504C107.329 79.504 106.858 79.6813 106.466 80.036C106.074 80.3813 105.841 80.8527 105.766 81.45H110.036ZM114.869 75.64V86H113.273V75.64H114.869Z" fill="#2F3030"/>
</g>
<defs>
<filter id="filter0_d_53_744" x="0" y="0.709503" width="189.111" height="118.931" filterUnits="userSpaceOnUse" color-interpolation-filters="sRGB">
<feFlood flood-opacity="0" result="BackgroundImageFix"/>
<feColorMatrix in="SourceAlpha" type="matrix" values="0 0 0 0 0 0 0 0 0 0 0 0 0 0 0 0 0 0 127 0" result="hardAlpha"/>
<feOffset dy="2"/>
<feGaussianBlur stdDeviation="4"/>
<feComposite in2="hardAlpha" operator="out"/>
<feColorMatrix type="matrix" values="0 0 0 0 0 0 0 0 0 0 0 0 0 0 0 0 0 0 0.1 0"/>
<feBlend mode="normal" in2="BackgroundImageFix" result="effect1_dropShadow_53_744"/>
<feBlend mode="normal" in="SourceGraphic" in2="effect1_dropShadow_53_744" result="shape"/>
</filter>
</defs>
</svg>
